<svg width="32" height="32" viewBox="0 0 32 32" fill="none" xmlns="http://www.w3.org/2000/svg">
  <!-- 机器人 logo：<*_*> -->
  <rect width="32" height="32" rx="7" fill="#0060a9"/>

  <!-- 天线 -->
  <line x1="16" y1="5" x2="16" y2="8.5" stroke="#5bb8ff" stroke-width="1.4" stroke-linecap="round"/>
  <circle cx="16" cy="4.6" r="1.5" fill="#5bb8ff"/>

  <!-- 头部主体（机器人脸） -->
  <rect x="6.5" y="8.5" width="19" height="16" rx="3.6" fill="#fff"/>

  <!-- <*_*> 用几何图形绘制（从左到右）-->
  <!-- 左 < ：两段斜线组成尖括号 -->
  <path d="M11 12.5 L9 16 L11 19.5" stroke="#0060a9" stroke-width="1.5" stroke-linecap="round" stroke-linejoin="round" fill="none"/>
  <!-- 左 * ：五角星形眼睛 -->
  <path d="M13.6 15.2 L14.1 16.55 L15.5 16.55 L14.4 17.4 L14.8 18.75 L13.6 17.95 L12.4 18.75 L12.8 17.4 L11.7 16.55 L13.1 16.55 Z" fill="#0060a9"/>
  <!-- _ 嘴：横线 -->
  <line x1="14.5" y1="20" x2="17.5" y2="20" stroke="#0060a9" stroke-width="1.8" stroke-linecap="round"/>
  <!-- 右 * ：五角星形眼睛 -->
  <path d="M20 15.2 L20.5 16.55 L21.9 16.55 L20.8 17.4 L21.2 18.75 L20 17.95 L18.8 18.75 L19.2 17.4 L18.1 16.55 L19.5 16.55 Z" fill="#0060a9"/>
  <!-- 右 > ：两段斜线组成尖括号 -->
  <path d="M19 12.5 L21 16 L19 19.5" stroke="#0060a9" stroke-width="1.5" stroke-linecap="round" stroke-linejoin="round" fill="none"/>
</svg>
